<?xml version="1.0" standalone="no"?>
<!DOCTYPE svg PUBLIC "-//W3C//DTD SVG 20010904//EN"
 "http://www.w3.org/TR/2001/REC-SVG-20010904/DTD/svg10.dtd">
<svg version="1.0" xmlns="http://www.w3.org/2000/svg"
 width="700.000000pt" height="700.000000pt" viewBox="0 0 700.000000 700.000000"
 preserveAspectRatio="xMidYMid meet">
<metadata>
Created by potrace 1.11, written by Peter Selinger 2001-2013
</metadata>
<g transform="translate(0.000000,700.000000) scale(0.100000,-0.100000)"
fill="#000000" stroke="none">
<path d="M2773 6274 c-398 -398 -723 -726 -723 -729 0 -3 177 -5 393 -4 215 0
410 0 432 0 l41 -1 -1 -762 c0 -663 2 -764 15 -779 8 -10 38 -36 65 -59 142
-119 327 -298 443 -427 31 -35 60 -63 64 -63 4 0 29 24 55 52 100 110 322 328
408 403 50 42 97 85 105 94 13 15 15 115 15 779 l-1 762 31 1 c16 0 211 0 433
0 221 0 402 2 402 4 0 6 -1449 1455 -1453 1454 -1 0 -327 -327 -724 -725z"/>
<path d="M2085 4800 c-11 -5 -105 -36 -210 -68 -104 -33 -275 -88 -380 -122
-104 -34 -356 -115 -560 -180 -203 -65 -408 -131 -455 -146 -47 -15 -89 -29
-95 -30 -5 -1 -94 -30 -197 -64 l-188 -61 66 -127 c37 -70 77 -145 89 -167 12
-22 48 -89 80 -150 100 -190 186 -354 275 -520 20 -38 68 -128 105 -200 70
-134 134 -256 190 -360 29 -53 70 -132 195 -368 20 -38 40 -69 45 -69 5 0 17
22 27 49 10 26 23 57 28 68 5 11 32 76 60 145 28 69 57 139 65 155 7 17 31 75
53 130 22 55 50 123 62 152 l23 51 66 -40 c462 -282 792 -614 1033 -1043 25
-44 56 -102 68 -130 22 -47 23 -49 30 -25 100 335 186 562 310 815 85 174 216
406 232 413 4 2 8 9 8 17 0 7 7 18 15 25 13 11 12 17 -9 45 -108 141 -413 439
-608 592 -182 144 -452 328 -621 423 -32 18 -57 37 -57 43 0 11 200 525 261
671 38 90 38 95 -6 76z"/>
<path d="M4880 4801 c0 -5 15 -47 34 -93 19 -45 86 -213 149 -373 l114 -289
-24 -13 c-194 -101 -583 -374 -823 -578 -94 -80 -396 -394 -481 -500 -291
-362 -507 -761 -657 -1210 -38 -115 -95 -315 -108 -380 -2 -11 -10 -47 -18
-80 -9 -33 -17 -71 -20 -85 -2 -14 -11 -63 -20 -110 -9 -47 -18 -103 -21 -125
-3 -22 -8 -51 -10 -65 -3 -14 -7 -47 -11 -75 -3 -27 -7 -61 -9 -75 -2 -14 -7
-50 -10 -80 -3 -30 -8 -68 -10 -85 -2 -16 -6 -68 -9 -115 -4 -47 -9 -103 -11
-125 -3 -22 -7 -101 -11 -175 -3 -74 -6 -137 -6 -140 -2 -30 3 -30 585 -30
l583 0 0 33 c1 36 12 190 19 252 2 22 7 67 10 100 3 33 8 74 10 90 3 17 7 47
10 68 11 80 17 116 36 227 11 63 27 142 35 175 8 33 17 68 19 77 93 403 284
819 518 1126 96 128 118 152 237 272 164 164 311 281 521 414 l134 84 19 -41
c10 -23 72 -172 138 -332 160 -388 160 -387 169 -378 4 4 31 53 59 108 29 55
67 127 85 160 18 33 58 110 90 170 32 61 74 142 95 180 21 39 61 115 90 170
29 55 72 136 95 180 23 44 66 125 95 180 29 55 67 127 85 160 18 33 60 114 95
180 34 66 79 152 100 190 20 39 62 118 93 176 l56 107 -27 10 c-15 6 -135 45
-267 87 -277 88 -777 249 -850 273 -27 9 -52 17 -55 17 -3 1 -12 4 -20 8 -8 3
-143 46 -300 96 -157 50 -355 113 -440 141 -176 57 -160 53 -160 41z"/>
</g>
</svg>
